# xmcd
#
# Track frame offsets: 
#        150
#        16845
#        32462
#        45084
#        62375
#        75800
#        90480
#        104378
#        119206
#        133888
#        150852
#        163194
#        176248
#        194019
#        207872
#        230419
#
# Disc length: 3279 seconds
#
# Revision: 0
# Processed by: cddbd v1.5.1PL0 Copyright (c) Steve Scherf et al.
# Submitted via: ExactAudioCopy v0.95a5
#
DISCID=c20ccd10
DTITLE=Billy Yates - Anywhere But Nashville
DYEAR=2004
DGENRE=Country
TTITLE0=Anywhere But Nashville
TTITLE1=All By My Lonesome
TTITLE2=This Song Doesn't Rock
TTITLE3=The Best Thing In The World
TTITLE4=What Are We Thinkin'
TTITLE5=Blinded By The Bud Light
TTITLE6=Roxanne's Bayou
TTITLE7=Love Is Standing Still
TTITLE8=Alcohol Abuse
TTITLE9=Blue Ain't Just A Mood
TTITLE10=I'm Just Drinkin'
TTITLE11=Nothin' Bigger Than Our Love
TTITLE12=My Infinite Love
TTITLE13=You're Why God Made Me
TTITLE14=American Voices
TTITLE15=Little Annie's Christmas Wish
EXTD=
EXTT0=
EXTT1=
EXTT2=
EXTT3=
EXTT4=
EXTT5=
EXTT6=
EXTT7=
EXTT8=
EXTT9=
EXTT10=
EXTT11=
EXTT12=
EXTT13=
EXTT14=
EXTT15=
PLAYORDER=
